<svg xmlns="http://www.w3.org/2000/svg" version="1.1" xmlns:xlink="http://www.w3.org/1999/xlink" xmlns:svgjs="http://svgjs.dev/svgjs" width="1440" height="560" preserveAspectRatio="none" viewBox="0 0 1440 560"><g mask="url(&quot;#SvgjsMask1003&quot;)" fill="none"><rect width="1440" height="560" x="0" y="0" fill="rgba(30, 143, 0, 1)"></rect><path d="M 0,54 C 57.6,72.4 172.8,138.8 288,146 C 403.2,153.2 460.8,78.6 576,90 C 691.2,101.4 748.8,217.2 864,203 C 979.2,188.8 1036.8,13.6 1152,19 C 1267.2,24.4 1382.4,187.8 1440,230L1440 560L0 560z" fill="rgba(0, 104, 45, 1)"></path><path d="M 0,345 C 96,372.2 288,470.8 480,481 C 672,491.2 768,399 960,396 C 1152,393 1344,452 1440,466L1440 560L0 560z" fill="rgba(0, 57, 7, 1)"></path></g><defs><mask id="SvgjsMask1003"><rect width="1440" height="560" fill="#ffffff"></rect></mask></defs></svg>